<svg xmlns:xlink="http://www.w3.org/1999/xlink" preserveAspectRatio="xMidYMid meet" data-bbox="8099.491 3757.12 13499.96 13499.995" viewBox="8099.491 3757.12 13499.96 13499.995" height="13499.995" width="13499.96" xmlns="http://www.w3.org/2000/svg" shape-rendering="geometricPrecision" text-rendering="geometricPrecision" image-rendering="optimizeQuality" fill-rule="evenodd" clip-rule="evenodd" data-type="shape" role="presentation" aria-hidden="true">
    <g stroke="#5E97FF" fill="#CCCCCC" stroke-width="0px">
        <path d="M11924.81 14094.55c712.07-264.76 1315.53-762.91 1928.58-1269.62 452.56-373.51 912.47-753.92 1413.63-1036.52 1437.62-810.92 2585.74-810.47 3346.1-388.96 923.12 512.56 1241.12 1609.68 928.52 2583.95-440.26 176.55-1194.62 310.95-1641.03 88.65-520.06-259.81-696.16-849.32-1045.82-1269.02-619.51-742.82-1591.82-128.11-1251.02 659.86 191.26 443.41 726.91 655.36 1161.47 770.41 826.21 218.26 1812.03 340.51 2644.24 82.05-1218.77 2531.9-6062.49 2565.5-7484.67-220.8zm3518.91-5656.45c268.35-144.9 492.61 350.41 201.15 476.56-249.6 108-669.46 7.35-904.21 16.95-2444.44 94.95-3795.81 2814.2-2928.8 4917.84 1104.17-401.41 1797.48-1253.88 2426.44-2242.99 890.72-1399.83 2082.48-3008.61 3739.86-3336.96 3792.81-748.52 4964.78 4482.68 1778.13 5914.6-1504.22 4077.82-8719.64 4167.82-10148.71-153.15-1032.02-493.21-1666.23-1589.43-1473.78-2727.8 173.86-1026.62 1020.32-2081.59 2855.9-2729.9 417.01-146.4 832.51-255.75 1246.52-356.1-1888.38-1328.73-1174.07-3717.22 975.46-4305.83 343.36-94.05 669.02-154.2 1019.42-154.2 375.16 0 761.86 36.3 1139.72 138 913.21 245.56 1525.67 975.77 1552.52 1736.43 56.4 1588.38-2110.08 2193.64-3313.55 2522 303.61 278.25 709.66 495.15 1130.87 481.5 167.55-5.55 508.21-101.4 703.06-196.95zm4416.67 5393.49c2924-1619.27 1399.82-6914.52-4191.22-2547.64 1287.32-582.76 2337.94-525.91 3073.85-118.2 955.82 529.81 1351.67 1625.13 1117.37 2665.84zm-6463.3-5898.4c-1087.07-1265.57-1065.02-3994.12 834.01-3994.12 1742.73 0 1933.98 2981.6-215.1 3809.47-204.61 68.55-411.16 129-618.91 184.65zm-838.82 483.31c395.41 214.5 835.67 350.71 1266.02 389.71-2415.78 364.65-4906.42 2145.33-4314.36 4867.13-803.12-482.41-1269.02-1394.87-1111.82-2326.24 159.15-939.32 952.66-1911.03 2681.14-2521.54 481.96-169.36 980.87-290.86 1479.02-409.06z" stroke="#5E97FF" fill="#CCCCCC" stroke-width="0px"></path>
    </g>
</svg>